<?xml version="1.0" encoding="UTF-8"?>
<svg width="230px" height="134px" viewBox="0 0 230 134" version="1.1" xmlns="http://www.w3.org/2000/svg" xmlns:xlink="http://www.w3.org/1999/xlink">
    <!-- Generator: Sketch 59.1 (86144) - https://sketch.com -->
    <title>Combined Shape</title>
    <desc>Created with Sketch.</desc>
    <g id="Symbols" stroke="none" stroke-width="1" fill="none" fill-rule="evenodd">
        <g id="Icons/CC-Logo" transform="translate(-35.000000, -90.000000)" fill="#000000" fill-rule="nonzero">
            <path d="M239.481763,98.357244 C242.159466,91.5788552 249.835591,88.2504736 256.626867,90.9230954 C263.418143,93.5957172 266.752853,101.257275 264.07515,108.035664 C260.074207,118.163725 255.245193,127.310955 249.608534,135.46699 L249.439905,135 C255.948408,153.054681 258.74545,165.212015 257.831031,171.472 C256.459402,180.861978 250.202735,182 242.574438,182 C234.946142,182 229.22492,180.496 227.317846,171.472 C226.715525,168.621903 226.969257,164.393434 228.079044,158.786594 C209.991964,173.377705 187.200632,181.960862 160.005517,184.38615 C164.672679,198.412141 166.614646,208.107485 165.831031,213.472 C164.459402,222.861978 158.202735,224 150.574438,224 C142.946142,224 137.22492,222.496 135.317846,213.472 C134.227635,208.31328 135.941991,198.638799 140.460915,184.448558 C114.96879,182.175676 92.9955193,173.707053 74.7634488,159.221725 C75.8928732,164.532462 76.2482188,168.615992 75.8310309,171.472 C74.4594015,180.861978 68.2027346,182 60.5744383,182 C52.946142,182 47.2249198,180.496 45.3178457,171.472 C44.0735761,165.584295 46.4825105,153.814401 52.5446489,136.162317 C46.4691276,128.040887 41.037963,118.923741 36.2658459,108.823756 C33.152064,102.233567 35.9804058,94.3717348 42.583124,91.2638618 C49.1858423,88.1559887 57.062622,90.9789633 60.1764039,97.5691519 C78.9194498,137.238021 108.231256,157.127372 149.795624,158.598679 L149.795624,158.598679 L151.146924,158.542492 C195.580877,156.510036 224.286229,136.823508 239.481763,98.357244 Z" id="Combined-Shape"></path>
        </g>
    </g>
</svg>